# xmcd
# Track frame offsets:
# 150
# 31055
# 46387
# 64429
# 97026
#
# Disc length: 1504 seconds
# Revision: 0
# Processed by: cddbd v1.5.2PL0 Copyright (c) Steve Scherf et al.
# Submitted via: VisiTrax 2.11.1.266 - For more info visit www.synapsa.com
#
DISCID=3f05de05
DTITLE=Jimi Beavis and The 385's - Throwing It All Away
DYEAR=2010
DGENRE=
TTITLE0=Man Like Me
TTITLE1=Tell Me What You've Done
TTITLE2=You're Thin, Gorgous And Stepping Out With Someone Else
TTITLE3=I Lied and I Cheated ( And I Threw It All Away )
TTITLE4=Ain't Nobody
EXTD=
EXTT0=
EXTT1=
EXTT2=
EXTT3=
EXTT4=
PLAYORDER=
